<?xml version="1.0" standalone="no"?>
<!DOCTYPE svg PUBLIC "-//W3C//DTD SVG 1.0//EN" "http://www.w3.org/TR/2001/REC-SVG-20010904/DTD/svg10.dtd">
<svg xmlns="http://www.w3.org/2000/svg" xmlns:xlink="http://www.w3.org/1999/xlink" id="body_1" width="5" height="5">

<g transform="matrix(0.20833334 0 0 0.20833334 0 0)">
	<g>
        <path d="M0 0L24 0L24 24L0 24L0 0z" stroke="none" fill="none" />
        <path d="M10.421 11.375C 10.127 12.403 10.433 13.439 11.205 14.028C 12.266 14.838 13.77 14.328 14.079 13.033C 14.159 12.696 14.182 12.311 14.106001 11.977C 13.876001 10.976 13.586 9.989 13.314001 8.981C 11.984001 9.135 10.771001 10.153 10.421001 11.375L10.421001 11.375L10.421 11.375zM15.969 11.088C 16.242 12.1 16.254 13.1050005 15.842 14.088C 14.714 16.778 11.121 17.228 9.269 14.9140005C 7.967 13.287001 7.9890003 10.953001 9.329 9.18C 10.109 8.148001 11.133 7.4730005 12.377001 7.1260004L12.377001 7.1260004L12.7560005 7.0220003C 12.672001 6.6070004 12.568001 6.2060003 12.5130005 5.7980003C 12.337001 4.4810004 13.025001 3.2950003 14.257 2.7580004C 15.483 2.2230003 16.965 2.5420003 17.787 3.5180004C 18.193 3.9970005 18.182001 4.5980005 17.762001 4.9820004C 17.35 5.359 16.766 5.3280005 16.327002 4.892C 16.080002 4.6460004 15.817001 4.452 15.450002 4.4560003C 14.925002 4.4620004 14.463001 4.8740005 14.505002 5.393C 14.542002 5.861 14.678002 6.323 14.805002 6.7790003C 14.827003 6.8570004 15.021002 6.9140005 15.1430025 6.932C 16.477003 7.129 17.647003 7.663 18.615002 8.608C 21.173002 11.101 21.476002 15.139 19.287003 18.048C 17.758003 20.08 15.677003 21.216 13.160003 21.457C 8.539003 21.897001 4.496003 18.927 3.460003 14.399C 2.515 10.255 4.84 5.831 8.795 4.25C 9.3810005 4.016 9.938 4.219 10.166 4.748C 10.398001 5.2850003 10.147 5.834 9.556001 6.098C 7.1880007 7.158 5.739001 8.953 5.3410006 11.521999C 4.8080006 14.955 6.9970007 18.298 10.341001 19.241999C 13.064001 20.012 15.999001 19.075998 17.649 16.911999C 19.235 14.831999 19.049 11.812999 17.222 10.038999C 16.71521 9.545256 16.085926 9.195578 15.399 9.025999C 15.597 9.741999 15.788 10.414 15.969 11.087999z" stroke="none" fill="#000000" fill-rule="nonzero" fill-opacity="0" />
	</g>
</g>
</svg>